<svg width="194" height="30" viewBox="0 0 194 30" fill="none" xmlns="http://www.w3.org/2000/svg">
<path d="M29.75 15C29.75 23.1462 23.1462 29.75 15 29.75C6.8538 29.75 0.25 23.1462 0.25 15C0.25 6.8538 6.8538 0.25 15 0.25C23.1462 0.25 29.75 6.8538 29.75 15Z" stroke="#9B9B9B" stroke-width="0.5"/>
<path fill-rule="evenodd" clip-rule="evenodd" d="M15.4673 20.0923L21.7543 21.8975C24.1339 22.5808 26.1341 20.0176 24.893 17.8755L21.4422 11.9195L17.2175 4.62799C16.8091 3.92307 16.1651 3.48965 15.4673 3.32843V4.92463C15.6464 5.02838 15.8038 5.18023 15.9196 5.38009L20.1443 12.6716L23.5951 18.6276C24.1593 19.6012 23.25 20.7663 22.1684 20.4558L15.5946 18.5682C15.5524 18.556 15.5099 18.545 15.4673 18.5349V20.0923Z" fill="#9B9B9B"/>
<path d="M14.1231 3.29214C13.8852 3.2414 13.6466 3.37185 13.5516 3.60331L10.0892 12.0326C9.02178 14.4805 10.0068 17.4115 10.4277 18.4535L6.27838 21.7204C6.17225 21.8117 6.10627 21.9436 6.09535 22.0861C6.08444 22.2287 6.1296 22.3697 6.22051 22.4772L9.11121 24.6635C9.20843 24.7784 9.3483 24.8438 9.49471 24.8438C9.50333 24.8438 9.51194 24.8435 9.52056 24.8431C9.6763 24.8349 9.81983 24.7533 9.91031 24.6215L14.4296 20.0322C14.4912 19.9426 14.5243 19.8352 14.5244 19.7252L14.5246 18.9698C14.5261 15.7521 14.5312 4.40789 14.5312 3.81071C14.5313 3.55928 14.3607 3.34242 14.1231 3.29214Z" fill="#9B9B9B"/>
<path d="M43.9659 8.90909V22H42.4318L35.2983 11.7216H35.1705V22H33.5852V8.90909H35.1193L42.2784 19.2131H42.4062V8.90909H43.9659ZM49.8226 22.2301C49.2005 22.2301 48.6358 22.1129 48.1287 21.8786C47.6216 21.6399 47.2189 21.2969 46.9206 20.8494C46.6223 20.3977 46.4732 19.8523 46.4732 19.2131C46.4732 18.6506 46.584 18.1946 46.8056 17.8452C47.0272 17.4915 47.3233 17.2145 47.6941 17.0142C48.0648 16.8139 48.4739 16.6648 48.9213 16.5668C49.373 16.4645 49.8269 16.3835 50.2828 16.3239C50.8794 16.2472 51.3631 16.1896 51.7338 16.1513C52.1088 16.1087 52.3816 16.0384 52.552 15.9403C52.7267 15.8423 52.8141 15.6719 52.8141 15.429V15.3778C52.8141 14.7472 52.6415 14.2571 52.2963 13.9077C51.9554 13.5582 51.4377 13.3835 50.7431 13.3835C50.0229 13.3835 49.4583 13.5412 49.0492 13.8565C48.6401 14.1719 48.3525 14.5085 48.1863 14.8665L46.7544 14.3551C47.0101 13.7585 47.351 13.294 47.7772 12.9616C48.2076 12.625 48.6763 12.3906 49.1834 12.2585C49.6948 12.1222 50.1976 12.054 50.6919 12.054C51.0073 12.054 51.3695 12.0923 51.7786 12.169C52.1919 12.2415 52.5904 12.3928 52.9739 12.6229C53.3617 12.853 53.6834 13.2003 53.9391 13.6648C54.1948 14.1293 54.3226 14.7514 54.3226 15.5312V22H52.8141V20.6705H52.7374C52.6351 20.8835 52.4647 21.1115 52.226 21.3544C51.9874 21.5973 51.6699 21.804 51.2736 21.9744C50.8773 22.1449 50.3936 22.2301 49.8226 22.2301ZM50.0527 20.875C50.6493 20.875 51.1522 20.7578 51.5613 20.5234C51.9746 20.2891 52.2857 19.9865 52.4945 19.6158C52.7076 19.245 52.8141 18.8551 52.8141 18.446V17.0653C52.7502 17.142 52.6096 17.2124 52.3922 17.2763C52.1792 17.3359 51.932 17.3892 51.6507 17.4361C51.3738 17.4787 51.1032 17.517 50.839 17.5511C50.579 17.581 50.3681 17.6065 50.2061 17.6278C49.8141 17.679 49.4476 17.7621 49.1067 17.8771C48.7701 17.9879 48.4973 18.1562 48.2885 18.3821C48.084 18.6037 47.9817 18.9062 47.9817 19.2898C47.9817 19.8139 48.1756 20.2102 48.5634 20.4787C48.9554 20.7429 49.4519 20.875 50.0527 20.875ZM57.076 22V12.1818H58.5334V13.7159H58.6612C58.8658 13.1918 59.196 12.7848 59.652 12.495C60.108 12.201 60.6555 12.054 61.2947 12.054C61.9425 12.054 62.4815 12.201 62.9119 12.495C63.3466 12.7848 63.6854 13.1918 63.9283 13.7159H64.0305C64.282 13.2088 64.6591 12.8061 65.1619 12.5078C65.6648 12.2053 66.2678 12.054 66.9709 12.054C67.8487 12.054 68.5668 12.3288 69.125 12.8786C69.6832 13.424 69.9624 14.2741 69.9624 15.429V22H68.4538V15.429C68.4538 14.7045 68.2557 14.1868 67.8594 13.8757C67.4631 13.5646 66.9964 13.4091 66.4595 13.4091C65.7692 13.4091 65.2344 13.6179 64.8551 14.0355C64.4759 14.4489 64.2862 14.973 64.2862 15.608V22H62.7521V15.2756C62.7521 14.7173 62.571 14.2678 62.2088 13.9268C61.8466 13.5817 61.38 13.4091 60.8089 13.4091C60.4169 13.4091 60.0504 13.5135 59.7095 13.7223C59.3729 13.9311 59.1001 14.2209 58.8913 14.5916C58.6868 14.9581 58.5845 15.3821 58.5845 15.8636V22H57.076ZM75.6097 22.2301C74.9876 22.2301 74.4229 22.1129 73.9158 21.8786C73.4087 21.6399 73.006 21.2969 72.7077 20.8494C72.4094 20.3977 72.2603 19.8523 72.2603 19.2131C72.2603 18.6506 72.3711 18.1946 72.5927 17.8452C72.8143 17.4915 73.1104 17.2145 73.4812 17.0142C73.8519 16.8139 74.261 16.6648 74.7085 16.5668C75.1602 16.4645 75.614 16.3835 76.07 16.3239C76.6665 16.2472 77.1502 16.1896 77.521 16.1513C77.896 16.1087 78.1687 16.0384 78.3391 15.9403C78.5138 15.8423 78.6012 15.6719 78.6012 15.429V15.3778C78.6012 14.7472 78.4286 14.2571 78.0835 13.9077C77.7425 13.5582 77.2248 13.3835 76.5302 13.3835C75.81 13.3835 75.2454 13.5412 74.8363 13.8565C74.4272 14.1719 74.1396 14.5085 73.9734 14.8665L72.5415 14.3551C72.7972 13.7585 73.1381 13.294 73.5643 12.9616C73.9947 12.625 74.4634 12.3906 74.9705 12.2585C75.4819 12.1222 75.9847 12.054 76.479 12.054C76.7944 12.054 77.1566 12.0923 77.5657 12.169C77.979 12.2415 78.3775 12.3928 78.761 12.6229C79.1488 12.853 79.4705 13.2003 79.7262 13.6648C79.9819 14.1293 80.1097 14.7514 80.1097 15.5312V22H78.6012V20.6705H78.5245C78.4222 20.8835 78.2518 21.1115 78.0131 21.3544C77.7745 21.5973 77.457 21.804 77.0607 21.9744C76.6644 22.1449 76.1808 22.2301 75.6097 22.2301ZM75.8398 20.875C76.4364 20.875 76.9393 20.7578 77.3484 20.5234C77.7617 20.2891 78.0728 19.9865 78.2816 19.6158C78.4947 19.245 78.6012 18.8551 78.6012 18.446V17.0653C78.5373 17.142 78.3967 17.2124 78.1793 17.2763C77.9663 17.3359 77.7191 17.3892 77.4379 17.4361C77.1609 17.4787 76.8903 17.517 76.6261 17.5511C76.3661 17.581 76.1552 17.6065 75.9933 17.6278C75.6012 17.679 75.2347 17.7621 74.8938 17.8771C74.5572 17.9879 74.2844 18.1562 74.0756 18.3821C73.8711 18.6037 73.7688 18.9062 73.7688 19.2898C73.7688 19.8139 73.9627 20.2102 74.3505 20.4787C74.7425 20.7429 75.239 20.875 75.8398 20.875ZM89.8176 14.3807L88.4625 14.7642C88.3773 14.5384 88.2516 14.3189 88.0854 14.1058C87.9235 13.8885 87.7019 13.7095 87.4206 13.5689C87.1394 13.4283 86.7793 13.358 86.3404 13.358C85.7395 13.358 85.2388 13.4964 84.8382 13.7734C84.4419 14.0462 84.2438 14.3935 84.2438 14.8153C84.2438 15.1903 84.3801 15.4865 84.6529 15.7038C84.9256 15.9212 85.3517 16.1023 85.9313 16.2472L87.3887 16.6051C88.2665 16.8182 88.9206 17.1442 89.351 17.5831C89.7814 18.0178 89.9966 18.5781 89.9966 19.2642C89.9966 19.8267 89.8347 20.3295 89.5108 20.7727C89.1912 21.2159 88.7438 21.5653 88.1685 21.821C87.5932 22.0767 86.9242 22.2045 86.1614 22.2045C85.16 22.2045 84.3311 21.9872 83.6749 21.5526C83.0186 21.1179 82.6032 20.483 82.4284 19.6477L83.8603 19.2898C83.9966 19.8182 84.2544 20.2145 84.6337 20.4787C85.0172 20.7429 85.5179 20.875 86.1358 20.875C86.839 20.875 87.3972 20.7259 87.8105 20.4276C88.2282 20.125 88.437 19.7628 88.437 19.3409C88.437 19 88.3176 18.7145 88.079 18.4844C87.8404 18.25 87.4739 18.0753 86.9796 17.9602L85.3432 17.5767C84.4441 17.3636 83.7836 17.0334 83.3617 16.5859C82.9441 16.1342 82.7353 15.5696 82.7353 14.892C82.7353 14.3381 82.8908 13.848 83.2019 13.4219C83.5172 12.9957 83.9455 12.6612 84.4867 12.4183C85.0321 12.1754 85.65 12.054 86.3404 12.054C87.312 12.054 88.0748 12.267 88.6287 12.6932C89.187 13.1193 89.5833 13.6818 89.8176 14.3807ZM96.5373 12.1818V13.4602H91.4492V12.1818H96.5373ZM92.9322 9.82955H94.4407V19.1875C94.4407 19.6136 94.5025 19.9332 94.6261 20.1463C94.7539 20.3551 94.9158 20.4957 95.1119 20.5682C95.3121 20.6364 95.5231 20.6705 95.7447 20.6705C95.9109 20.6705 96.0472 20.6619 96.1538 20.6449C96.2603 20.6236 96.3455 20.6065 96.4094 20.5938L96.7163 21.9489C96.614 21.9872 96.4712 22.0256 96.288 22.0639C96.1048 22.1065 95.8725 22.1278 95.5913 22.1278C95.1651 22.1278 94.7475 22.0362 94.3384 21.853C93.9336 21.6697 93.5969 21.3906 93.3285 21.0156C93.0643 20.6406 92.9322 20.1676 92.9322 19.5966V9.82955ZM102.817 22.2045C101.871 22.2045 101.055 21.9957 100.369 21.5781C99.6875 21.1562 99.1612 20.5682 98.7905 19.8139C98.424 19.0554 98.2408 18.1733 98.2408 17.1676C98.2408 16.1619 98.424 15.2756 98.7905 14.5085C99.1612 13.7372 99.6768 13.1364 100.337 12.706C101.002 12.2713 101.778 12.054 102.664 12.054C103.175 12.054 103.68 12.1392 104.179 12.3097C104.678 12.4801 105.131 12.7571 105.54 13.1406C105.95 13.5199 106.276 14.0227 106.518 14.6491C106.761 15.2756 106.883 16.0469 106.883 16.9631V17.6023H99.3146V16.2983H105.349C105.349 15.7443 105.238 15.25 105.016 14.8153C104.799 14.3807 104.488 14.0376 104.083 13.7862C103.683 13.5348 103.21 13.4091 102.664 13.4091C102.063 13.4091 101.543 13.5582 101.104 13.8565C100.67 14.1506 100.335 14.5341 100.101 15.0071C99.8665 15.4801 99.7493 15.9872 99.7493 16.5284V17.3977C99.7493 18.1392 99.8771 18.7678 100.133 19.2834C100.393 19.7947 100.753 20.1847 101.213 20.4531C101.673 20.7173 102.208 20.8494 102.817 20.8494C103.214 20.8494 103.572 20.794 103.891 20.6832C104.215 20.5682 104.494 20.3977 104.729 20.1719C104.963 19.9418 105.144 19.6562 105.272 19.3153L106.729 19.7244C106.576 20.2188 106.318 20.6534 105.956 21.0284C105.594 21.3991 105.146 21.6889 104.614 21.8977C104.081 22.1023 103.482 22.2045 102.817 22.2045ZM119.763 8.90909V22H118.229L111.095 11.7216H110.967V22H109.382V8.90909H110.916L118.075 19.2131H118.203V8.90909H119.763ZM125.619 22.2301C124.997 22.2301 124.433 22.1129 123.926 21.8786C123.419 21.6399 123.016 21.2969 122.718 20.8494C122.419 20.3977 122.27 19.8523 122.27 19.2131C122.27 18.6506 122.381 18.1946 122.602 17.8452C122.824 17.4915 123.12 17.2145 123.491 17.0142C123.862 16.8139 124.271 16.6648 124.718 16.5668C125.17 16.4645 125.624 16.3835 126.08 16.3239C126.676 16.2472 127.16 16.1896 127.531 16.1513C127.906 16.1087 128.178 16.0384 128.349 15.9403C128.524 15.8423 128.611 15.6719 128.611 15.429V15.3778C128.611 14.7472 128.438 14.2571 128.093 13.9077C127.752 13.5582 127.235 13.3835 126.54 13.3835C125.82 13.3835 125.255 13.5412 124.846 13.8565C124.437 14.1719 124.149 14.5085 123.983 14.8665L122.551 14.3551C122.807 13.7585 123.148 13.294 123.574 12.9616C124.004 12.625 124.473 12.3906 124.98 12.2585C125.492 12.1222 125.994 12.054 126.489 12.054C126.804 12.054 127.166 12.0923 127.575 12.169C127.989 12.2415 128.387 12.3928 128.771 12.6229C129.159 12.853 129.48 13.2003 129.736 13.6648C129.992 14.1293 130.119 14.7514 130.119 15.5312V22H128.611V20.6705H128.534C128.432 20.8835 128.262 21.1115 128.023 21.3544C127.784 21.5973 127.467 21.804 127.07 21.9744C126.674 22.1449 126.191 22.2301 125.619 22.2301ZM125.85 20.875C126.446 20.875 126.949 20.7578 127.358 20.5234C127.771 20.2891 128.083 19.9865 128.291 19.6158C128.504 19.245 128.611 18.8551 128.611 18.446V17.0653C128.547 17.142 128.406 17.2124 128.189 17.2763C127.976 17.3359 127.729 17.3892 127.448 17.4361C127.171 17.4787 126.9 17.517 126.636 17.5511C126.376 17.581 126.165 17.6065 126.003 17.6278C125.611 17.679 125.244 17.7621 124.904 17.8771C124.567 17.9879 124.294 18.1562 124.085 18.3821C123.881 18.6037 123.779 18.9062 123.779 19.2898C123.779 19.8139 123.972 20.2102 124.36 20.4787C124.752 20.7429 125.249 20.875 125.85 20.875ZM140.55 12.1818L136.919 22H135.385L131.754 12.1818H133.391L136.101 20.0057H136.203L138.913 12.1818H140.55ZM142.541 22V12.1818H144.049V22H142.541ZM143.308 10.5455C143.014 10.5455 142.76 10.4453 142.547 10.245C142.338 10.0447 142.234 9.80398 142.234 9.52273C142.234 9.24148 142.338 9.00071 142.547 8.80043C142.76 8.60014 143.014 8.5 143.308 8.5C143.602 8.5 143.853 8.60014 144.062 8.80043C144.275 9.00071 144.382 9.24148 144.382 9.52273C144.382 9.80398 144.275 10.0447 144.062 10.245C143.853 10.4453 143.602 10.5455 143.308 10.5455ZM150.775 25.8864C150.047 25.8864 149.42 25.7926 148.896 25.6051C148.372 25.4219 147.935 25.179 147.586 24.8764C147.241 24.5781 146.966 24.2585 146.761 23.9176L147.963 23.0739C148.099 23.2528 148.272 23.4574 148.481 23.6875C148.689 23.9219 148.975 24.1243 149.337 24.2947C149.704 24.4695 150.183 24.5568 150.775 24.5568C151.568 24.5568 152.222 24.3651 152.738 23.9815C153.253 23.598 153.511 22.9972 153.511 22.179V20.1847H153.383C153.273 20.3636 153.115 20.5852 152.91 20.8494C152.71 21.1094 152.42 21.3416 152.041 21.5462C151.666 21.7464 151.159 21.8466 150.52 21.8466C149.727 21.8466 149.015 21.6591 148.385 21.2841C147.758 20.9091 147.262 20.3636 146.895 19.6477C146.533 18.9318 146.352 18.0625 146.352 17.0398C146.352 16.0341 146.529 15.1584 146.883 14.4126C147.236 13.6626 147.729 13.0831 148.359 12.674C148.99 12.2607 149.719 12.054 150.545 12.054C151.184 12.054 151.692 12.1605 152.067 12.3736C152.446 12.5824 152.736 12.821 152.936 13.0895C153.14 13.3537 153.298 13.571 153.409 13.7415H153.562V12.1818H155.02V22.2812C155.02 23.125 154.828 23.8111 154.444 24.3395C154.065 24.8722 153.554 25.2621 152.91 25.5092C152.271 25.7607 151.559 25.8864 150.775 25.8864ZM150.724 20.4915C151.329 20.4915 151.841 20.353 152.258 20.076C152.676 19.799 152.993 19.4006 153.211 18.8807C153.428 18.3608 153.537 17.7386 153.537 17.0142C153.537 16.3068 153.43 15.6825 153.217 15.1413C153.004 14.6001 152.689 14.1761 152.271 13.8693C151.854 13.5625 151.338 13.4091 150.724 13.4091C150.085 13.4091 149.552 13.571 149.126 13.8949C148.704 14.2187 148.387 14.6534 148.174 15.1989C147.965 15.7443 147.861 16.3494 147.861 17.0142C147.861 17.696 147.967 18.299 148.18 18.8232C148.398 19.343 148.717 19.7521 149.139 20.0504C149.565 20.3445 150.094 20.4915 150.724 20.4915ZM160.67 22.2301C160.048 22.2301 159.483 22.1129 158.976 21.8786C158.469 21.6399 158.067 21.2969 157.768 20.8494C157.47 20.3977 157.321 19.8523 157.321 19.2131C157.321 18.6506 157.432 18.1946 157.653 17.8452C157.875 17.4915 158.171 17.2145 158.542 17.0142C158.912 16.8139 159.322 16.6648 159.769 16.5668C160.221 16.4645 160.675 16.3835 161.131 16.3239C161.727 16.2472 162.211 16.1896 162.581 16.1513C162.956 16.1087 163.229 16.0384 163.4 15.9403C163.574 15.8423 163.662 15.6719 163.662 15.429V15.3778C163.662 14.7472 163.489 14.2571 163.144 13.9077C162.803 13.5582 162.285 13.3835 161.591 13.3835C160.871 13.3835 160.306 13.5412 159.897 13.8565C159.488 14.1719 159.2 14.5085 159.034 14.8665L157.602 14.3551C157.858 13.7585 158.199 13.294 158.625 12.9616C159.055 12.625 159.524 12.3906 160.031 12.2585C160.542 12.1222 161.045 12.054 161.54 12.054C161.855 12.054 162.217 12.0923 162.626 12.169C163.04 12.2415 163.438 12.3928 163.822 12.6229C164.209 12.853 164.531 13.2003 164.787 13.6648C165.042 14.1293 165.17 14.7514 165.17 15.5312V22H163.662V20.6705H163.585C163.483 20.8835 163.312 21.1115 163.074 21.3544C162.835 21.5973 162.518 21.804 162.121 21.9744C161.725 22.1449 161.241 22.2301 160.67 22.2301ZM160.9 20.875C161.497 20.875 162 20.7578 162.409 20.5234C162.822 20.2891 163.133 19.9865 163.342 19.6158C163.555 19.245 163.662 18.8551 163.662 18.446V17.0653C163.598 17.142 163.457 17.2124 163.24 17.2763C163.027 17.3359 162.78 17.3892 162.498 17.4361C162.221 17.4787 161.951 17.517 161.687 17.5511C161.427 17.581 161.216 17.6065 161.054 17.6278C160.662 17.679 160.295 17.7621 159.954 17.8771C159.618 17.9879 159.345 18.1562 159.136 18.3821C158.932 18.6037 158.829 18.9062 158.829 19.2898C158.829 19.8139 159.023 20.2102 159.411 20.4787C159.803 20.7429 160.3 20.875 160.9 20.875ZM172.194 12.1818V13.4602H167.105V12.1818H172.194ZM168.588 9.82955H170.097V19.1875C170.097 19.6136 170.159 19.9332 170.282 20.1463C170.41 20.3551 170.572 20.4957 170.768 20.5682C170.968 20.6364 171.179 20.6705 171.401 20.6705C171.567 20.6705 171.703 20.6619 171.81 20.6449C171.917 20.6236 172.002 20.6065 172.066 20.5938L172.373 21.9489C172.27 21.9872 172.127 22.0256 171.944 22.0639C171.761 22.1065 171.529 22.1278 171.248 22.1278C170.821 22.1278 170.404 22.0362 169.995 21.853C169.59 21.6697 169.253 21.3906 168.985 21.0156C168.721 20.6406 168.588 20.1676 168.588 19.5966V9.82955ZM178.346 22.2045C177.46 22.2045 176.682 21.9936 176.013 21.5717C175.348 21.1499 174.828 20.5597 174.453 19.8011C174.082 19.0426 173.897 18.1562 173.897 17.142C173.897 16.1193 174.082 15.2266 174.453 14.4638C174.828 13.701 175.348 13.1087 176.013 12.6868C176.682 12.2649 177.46 12.054 178.346 12.054C179.232 12.054 180.008 12.2649 180.673 12.6868C181.342 13.1087 181.862 13.701 182.232 14.4638C182.607 15.2266 182.795 16.1193 182.795 17.142C182.795 18.1562 182.607 19.0426 182.232 19.8011C181.862 20.5597 181.342 21.1499 180.673 21.5717C180.008 21.9936 179.232 22.2045 178.346 22.2045ZM178.346 20.8494C179.019 20.8494 179.573 20.6768 180.008 20.3317C180.442 19.9865 180.764 19.5327 180.973 18.9702C181.182 18.4077 181.286 17.7983 181.286 17.142C181.286 16.4858 181.182 15.8743 180.973 15.3075C180.764 14.7408 180.442 14.2827 180.008 13.9332C179.573 13.5838 179.019 13.4091 178.346 13.4091C177.673 13.4091 177.119 13.5838 176.684 13.9332C176.249 14.2827 175.928 14.7408 175.719 15.3075C175.51 15.8743 175.406 16.4858 175.406 17.142C175.406 17.7983 175.51 18.4077 175.719 18.9702C175.928 19.5327 176.249 19.9865 176.684 20.3317C177.119 20.6768 177.673 20.8494 178.346 20.8494ZM185.097 22V12.1818H186.555V13.6648H186.657C186.836 13.179 187.16 12.7848 187.629 12.4822C188.097 12.1797 188.626 12.0284 189.214 12.0284C189.325 12.0284 189.463 12.0305 189.629 12.0348C189.796 12.0391 189.921 12.0455 190.007 12.054V13.5881C189.955 13.5753 189.838 13.5561 189.655 13.5305C189.476 13.5007 189.286 13.4858 189.086 13.4858C188.609 13.4858 188.183 13.5859 187.808 13.7862C187.437 13.9822 187.143 14.255 186.926 14.6044C186.713 14.9496 186.606 15.3437 186.606 15.7869V22H185.097Z" fill="#9B9B9B"/>
</svg>
